# AST/ASF file generated using VICON BodyLanguage
# -----------------------------------------------
:version 1.10
:name VICON
:units
  mass 1.0
  length 0.45
  angle deg
:documentation
   .ast/.asf automatically generated from VICON data using
   VICON BodyBuilder and BodyLanguage model FoxedUp or BRILLIANT.MOD
:root
   order TX TY TZ RX RY RZ
   axis XYZ
   position 0 0 0  
   orientation 0 0 0 
:bonedata
  begin
     id 1 
     name lhipjoint
     direction 0.650112 -0.723553 0.232005 
     length 2.45805 
     axis 0 0 0  XYZ
  end
  begin
     id 2 
     name lfemur
     direction 0.34202 -0.939693 0  
     length 7.00073  
     axis 0 0 20  XYZ
    dof rx ry rz
    limits (-160.0 20.0)
           (-70.0 70.0)
           (-60.0 70.0)
  end
  begin
     id 3 
     name ltibia
     direction 0.34202 -0.939693 0   
     length 7.8748   
     axis 0 0 20   XYZ
    dof rx
    limits (-10.0 170.0)
  end
  begin
     id 4 
     name lfoot
     direction 0.0542825 -0.14914 0.987325   
     length 1.75978   
     axis -90 7.62852e-016 20   XYZ
    dof rx rz
    limits (-45.0 90.0)
           (-70.0 20.0)
  end
  begin
     id 5 
     name ltoes
     direction 1.53509e-011 -4.21906e-011 1   
     length 0.893912   
     axis -90 7.62852e-016 20   XYZ
    dof rx
    limits (-90.0 20.0)
  end
  begin
     id 6 
     name rhipjoint
     direction -0.637897 -0.733345 0.235145   
     length 2.42522  
     axis 0 0 0  XYZ 
  end
  begin
     id 7 
     name rfemur
     direction -0.34202 -0.939693 0   
     length 7.02549   
     axis 0 0 -20   XYZ
    dof rx ry rz
    limits (-160.0 20.0)
           (-70.0 70.0)
           (-70.0 60.0)
  end
  begin
     id 8 
     name rtibia
     direction -0.34202 -0.939693 0   
     length 7.71512   
     axis 0 0 -20   XYZ
    dof rx
    limits (-10.0 170.0)
 end
 begin
     id 9 
     name rfoot
     direction -0.0822618 -0.226012 0.970645   
     length 1.90014  
     axis -90 -7.62852e-016 -20   XYZ
    dof rx rz
    limits (-45.0 90.0)
           (-20.0 70.0)
  end
  begin
     id 10 
     name rtoes
     direction -1.53542e-011 -4.21872e-011 1   
     length 0.957341   
     axis -90 -7.62852e-016 -20   XYZ
    dof rx
    limits (-90.0 20.0)
  end
  begin
     id 11 
     name lowerback
     direction -0.0022947 0.999774 -0.0211557   
     length 1.89909   
     axis 0 0 0   XYZ
    dof rx ry rz
    limits (-20.0 45.0)
           (-30.0 30.0)
           (-30.0 30.0)
  end
  begin
     id 12 
     name upperback
     direction 0.0107737 0.998635 0.0511027   
     length 1.8853   
     axis 0 0 0   XYZ
    dof rx ry rz
    limits (-20.0 45.0)
           (-30.0 30.0)
           (-30.0 30.0)
  end
  begin
     id 13 
     name thorax
     direction 0.011824 0.998136 0.0598754   
     length 1.88911   
     axis 0 0 0   XYZ
    dof rx ry rz
    limits (-20.0 45.0)
           (-30.0 30.0)
           (-30.0 30.0)
  end
  begin
     id 14 
     name lowerneck
     direction -0.0685355 0.990319 0.120714   
     length 1.91222   
     axis 0 0 0   XYZ
    dof rx ry rz
    limits (-20.0 45.0)
           (-30.0 30.0)
           (-30.0 30.0)
  end
  begin
     id 15 
     name upperneck
     direction 0.0886204 0.955665 -0.280805   
     length 1.92526   
     axis 0 0 0   XYZ
    dof rx ry rz
    limits (-20.0 45.0)
           (-30.0 30.0)
           (-30.0 30.0)
  end
  begin
     id 16
     name head
     direction 0.0233423 0.993502 -0.111393  
     length 1.96056  
     axis 0 0 0   XYZ
    dof rx ry rz
    limits (-20.0 45.0)
           (-30.0 30.0)
           (-30.0 30.0)
  end
  begin
     id 17 
     name lclavicle
     direction 0.941873 0.32922 0.0670041  
     length 3.31705  
     axis 0 0 0   XYZ
    dof ry rz
    limits (-20.0 10.0)
           (0.0 20.0)
  end
  begin
     id 18 
     name lhumerus
     direction 1 -4.4898e-011 3.38707e-028   
     length 5.29277   
     axis 180 -30 -90   XYZ
    dof rx ry rz
    limits (-60.0 90.0)
           (-90.0 90.0)
           (-90.0 90.0)
  end
  begin
     id 19
     name lradius
     direction 1 -4.48952e-011 1.63213e-028   
     length 2.85226   
     axis 180 -30 -90   XYZ
    dof rx
    limits (-10.0 170.0)
  end
  begin
     id 20
     name lwrist
     direction 1 -4.49001e-011 1.27856e-027   
     length 1.42613   
     axis -1.61767e-015 90 90   XYZ
    dof ry
    limits (-180.0 0.0)
 end
  begin
     id 21 
     name lhand
     direction 1 -4.48976e-011 2.55931e-027   
     length 0.602097   
     axis -1.63363e-015 90 90   XYZ
    dof rx rz
    limits (-90.0 90.0)
           (-45.0 45.0)
  end
  begin
     id 22 
     name lfingers
     direction 1 -4.48986e-011 5.11684e-027   
     length 0.485426   
     axis -3.26723e-015 90 90   XYZ
    dof rx
    limits (0.0 90.0)
  end
  begin
     id 23
     name lthumb
     direction 0.707107 -6.34915e-011 0.707107   
     length 0.696978   
     axis -90 45 -2.25915e-014   XYZ
    dof rx rz
    limits (-45.0 45.0)
           (-45.0 45.0)
  end
  begin
     id 24 
     name rclavicle
     direction -0.939974 0.327078 0.0973096   
     length 3.10337  
     axis 0 0 0   XYZ 
    dof ry rz
    limits (-10.0 20.0)
           (-20.0 0.0)
  end
  begin
     id 25 
     name rhumerus
     direction -1 -4.48975e-011 1.83745e-027  
     length 5.13304   
     axis 180 30 90   XYZ
    dof rx ry rz
    limits (-90.0 60.0)
           (-90.0 90.0)
           (-90.0 90.0)
  end
  begin
     id 26 
     name rradius
     direction -1 -4.48977e-011 7.1775e-029   
     length 2.74305   
     axis 180 30 90   XYZ
    dof rx
    limits (-10.0 170.0)
  end
  begin
     id 27 
     name rwrist
     direction -1 -4.48977e-011 1.27963e-027   
     length 1.37152   
     axis -1.61767e-015 -90 -90   XYZ
    dof ry
    limits (-180.0 0.0)
  end
  begin
     id 28
     name rhand
     direction -1 -4.4888e-011 2.56782e-027   
     length 0.767976   
     axis -1.63363e-015 -90 -90   XYZ
    dof rx rz
    limits (-90.0 90.0)
           (-45.0 45.0)
  end
  begin
     id 29
     name rfingers
     direction -1 -4.48947e-011 5.12384e-027   
     length 0.619162   
     axis -3.26723e-015 -90 -90   XYZ
    dof rx
    limits (0.0 90.0)
  end
  begin
     id 30
     name rthumb
     direction -0.707107 -6.34857e-011 0.707107   
     length 0.888997   
     axis -90 -45 2.25915e-014   XYZ
    dof rx rz
    limits (-45.0 45.0)
           (-45.0 45.0)
  end
:hierarchy
  begin
    root lhipjoint rhipjoint lowerback
    lhipjoint lfemur
    lfemur ltibia
    ltibia lfoot
    lfoot ltoes
    rhipjoint rfemur
    rfemur rtibia
    rtibia rfoot
    rfoot rtoes
    lowerback upperback
    upperback thorax
    thorax lowerneck lclavicle rclavicle
    lowerneck upperneck
    upperneck head
    lclavicle lhumerus
    lhumerus lradius
    lradius lwrist
    lwrist lhand lthumb
    lhand lfingers
    rclavicle rhumerus
    rhumerus rradius
    rradius rwrist
    rwrist rhand rthumb
    rhand rfingers
  end

#!OML:ASF F:\VICON\USERDATA\INSTALL\rory3\rory3.ASF
:FULLY-SPECIFIED
:DEGREES
1817
root 0.220131 16.9867 0.00857832 -6.89684 0.936103 -1.59985
lowerback -1.53029 -0.739632 -2.28386
upperback 3.30407 -0.97652 1.87618
thorax 4.34061 -0.598561 3.17006
lowerneck 1.79745 -9.44266 -20.0868
upperneck 18.7933 -15.778 18.8273
head 8.6321 -7.89172 8.46633
rclavicle 9.69075e-016 -2.78299e-015
rhumerus -20.0846 14.8078 -85.7622
rradius 142.869
rwrist -49.7623
rhand 43.4484 21.9684
rfingers 7.12502
rthumb 65.1846 15.1019
lclavicle 9.69075e-016 -2.78299e-015
lhumerus -12.82 -31.5213 88.6733
lradius 140.146
lwrist 65.5803
lhand 47.3924 37.9928
lfingers 7.12502
lthumb 68.1593 38.8366
rfemur 4.97497 6.89345 21.2043
rtibia 22.2802
rfoot -19.9859 -11.0086
rtoes -23.4788
lfemur 1.34833 -9.9748 -19.7257
ltibia 28.6341
lfoot -21.497 8.0718
ltoes -17.6468
1818
root 0.223094 16.9835 0.0129634 -7.03163 0.903893 -1.62216
lowerback -1.79056 -0.749913 -2.21088
upperback 3.38233 -0.98895 1.86041
thorax 4.56935 -0.60628 3.10911
lowerneck 2.84819 -9.22137 -20.2552
upperneck 18.2898 -15.5935 18.9902
head 8.25527 -7.86962 8.62276
rclavicle 1.45361e-015 2.18663e-015
rhumerus -19.7986 14.8564 -85.7393
rradius 142.754
rwrist -49.1865
rhand 42.9937 22.6359
rfingers 7.12502
rthumb 64.8255 15.1712
lclavicle 1.45361e-015 2.18663e-015
lhumerus -12.6068 -31.5098 88.598
lradius 140.147
lwrist 65.6655
lhand 47.1087 38.0236
lfingers 7.12502
lthumb 67.9549 39.3559
rfemur 5.18507 6.91831 21.2426
rtibia 22.2001
rfoot -19.9834 -11.0057
rtoes -23.3993
lfemur 1.53984 -9.95316 -19.7412
ltibia 28.6167
lfoot -21.5576 8.11506
ltoes -17.9632
1819
root 0.226418 16.9811 0.0162808 -7.18022 0.87373 -1.70123
lowerback -1.91947 -0.758126 -2.06765
upperback 3.35881 -1.00351 1.84999
thorax 4.61586 -0.608584 3.0154
lowerneck 4.31173 -8.88922 -20.5125
upperneck 17.5526 -15.3322 19.3543
head 7.73625 -7.83187 8.89608
rclavicle 1.80149e-016 1.76918e-014
rhumerus -19.7425 14.9797 -85.8113
rradius 142.773
rwrist -49.0711
rhand 42.3819 22.5795
rfingers 7.12502
rthumb 64.3379 14.3375
lclavicle 1.80149e-016 1.76918e-014
lhumerus -12.3918 -31.5656 88.608
lradius 140.257
lwrist 65.7926
lhand 46.4284 38.0866
lfingers 7.12502
lthumb 67.4581 40.5528
rfemur 5.40497 6.93346 21.3411
rtibia 22.1084
rfoot -19.9418 -11.0024
rtoes -23.406
lfemur 1.71547 -9.90319 -19.6825
ltibia 28.6374
lfoot -21.5348 8.06194
ltoes -17.7595
1820
root 0.228561 16.9786 0.0184709 -7.32674 0.821663 -1.76125
lowerback -2.03487 -0.787879 -2.00321
upperback 3.33158 -1.04511 1.86452
thorax 4.65491 -0.627494 2.99051
lowerneck 5.66576 -8.56075 -20.7854
upperneck 16.9326 -15.0692 19.6544
head 7.27659 -7.79074 9.1449
rclavicle 1.13494e-014 -4.96962e-015
rhumerus -19.6927 14.9553 -85.7952
rradius 142.82
rwrist -49.5942
rhand 42.5447 22.1266
rfingers 7.12502
rthumb 64.4681 14.0884
lclavicle 1.13494e-014 -4.96962e-015
lhumerus -12.2914 -31.5215 88.6733
lradius 140.336
lwrist 65.8241
lhand 46.413 38.1664
lfingers 7.12502
lthumb 67.4468 40.6575
rfemur 5.61244 6.98055 21.4301
rtibia 22.0291
rfoot -19.9361 -10.9959
rtoes -23.3927
lfemur 1.8721 -9.80954 -19.6346
ltibia 28.6725
lfoot -21.5001 8.07271
ltoes -17.8719
1821
root 0.229701 16.9763 0.0207834 -7.46025 0.775131 -1.82172
lowerback -2.13261 -0.812176 -1.97388
upperback 3.29065 -1.07791 1.87361
thorax 4.66961 -0.642652 2.98042
lowerneck 6.87896 -8.279 -21.072
upperneck 16.4889 -14.8674 19.8754
head 6.91229 -7.77455 9.35555
rclavicle 1.09456e-014 6.95746e-015
rhumerus -19.6155 14.6203 -85.674
rradius 142.857
rwrist -50.6336
rhand 43.6169 21.3597
rfingers 7.12502
rthumb 65.317 14.7196
lclavicle 1.09456e-014 6.95746e-015
lhumerus -12.4407 -31.486 88.7746
lradius 140.353
lwrist 65.755
lhand 47.0285 38.2931
lfingers 7.12502
lthumb 67.8968 39.7618
rfemur 5.80108 7.01581 21.5203
rtibia 21.9731
rfoot -19.9592 -11.0067
rtoes -23.4114
lfemur 2.03103 -9.72587 -19.5785
ltibia 28.6888
lfoot -21.5406 8.029
ltoes -17.9681
1822
root 0.229865 16.9742 0.0214748 -7.58241 0.71334 -1.85354
lowerback -2.43249 -0.811886 -2.01878
upperback 3.37975 -1.07305 1.88692
thorax 4.93479 -0.646733 3.01657
lowerneck 8.04859 -8.00085 -21.4775
upperneck 16.0187 -14.6942 20.2381
head 6.5766 -7.77182 9.634
rclavicle 1.23309e-014 -3.97569e-015
rhumerus -19.2614 14.383 -85.4889
rradius 142.904
rwrist -51.1417
rhand 44.145 20.8583
rfingers 7.12502
rthumb 65.729 14.9438
lclavicle 1.23309e-014 -3.97569e-015
lhumerus -12.0756 -31.596 88.6673
lradius 140.441
lwrist 65.702
lhand 46.7116 38.1086
lfingers 7.12502
lthumb 67.666 40.109
rfemur 5.94695 7.08116 21.5873
rtibia 21.9426
rfoot -19.9456 -11.0287
rtoes -23.3116
lfemur 2.18323 -9.65743 -19.5524
ltibia 28.6847
lfoot -21.5661 8.01427
ltoes -18.1276
1823
root 0.231268 16.9719 0.0229988 -7.72521 0.665993 -1.8098
lowerback -2.74368 -0.831888 -2.16195
upperback 3.49851 -1.09036 1.9074
thorax 5.24217 -0.66698 3.11405
lowerneck 9.21712 -7.70465 -21.7302
upperneck 15.4698 -14.4646 20.4918
head 6.18465 -7.73555 9.84891
rclavicle -5.91384e-015 -5.76476e-015
rhumerus -18.8132 14.4235 -85.3115
rradius 142.922
rwrist -51.0933
rhand 44.0075 20.7822
rfingers 7.12502
rthumb 65.6221 14.6763
lclavicle -5.91384e-015 -5.76476e-015
lhumerus -11.7069 -31.657 88.5699
lradius 140.51
lwrist 65.634
lhand 46.4872 37.9738
lfingers 7.12502
lthumb 67.5015 40.3439
rfemur 6.11693 7.1043 21.5616
rtibia 21.9193
rfoot -19.9373 -11.0416
rtoes -23.3448
lfemur 2.35858 -9.61763 -19.6296
ltibia 28.6748
lfoot -21.5821 8.05562
ltoes -18.1775
